# xmcd CD database file
#
# Track frame offsets:
#	150
#	19822
#	56219
#
# Disc length: 1090 seconds
#
# Revision: 0
# Processed by: cddbd v1.5PL3 Copyright (c) Steve Scherf et al.
# Submitted via: CDex 1.50
#
DISCID=22044003
DTITLE=ルルティア - トロイメライ
DYEAR=2003
DGENRE=New Age
TTITLE0=トロイメライ
TTITLE1=月千一夜
TTITLE2=CD-EXTRA トロイメライ
EXTD=YEAR: 2003
EXTT0=
EXTT1=
EXTT2=
PLAYORDER=
